# xmcd
#
# Track frame offsets: 
#        183
#        18798
#        36300
#        53098
#        66198
#        89225
#        107143
#        125155
#        146828
#        165570
#        182823
#        207355
#
# Disc length: 2993 seconds
#
# Revision: 2
# Processed by: cddbd v1.5.2PL0 Copyright (c) Steve Scherf et al.
# Submitted via: ExactAudioCopy v0.99pb5
#
DISCID=b40baf0c
DTITLE=Luther Allison - Here I Come
DYEAR=1985
DGENRE=Blues
TTITLE0=Here I Come
TTITLE1=Vision
TTITLE2=Midnight Creeper
TTITLE3=I Just Can t Turn You A-Loose
TTITLE4=A Change Must Come
TTITLE5=Too Many Women
TTITLE6=Guitar Slingin
TTITLE7=An Old Sweet Song
TTITLE8=You re My Woman
TTITLE9=I Think I Need Some Help
TTITLE10=Glass Trap
TTITLE11=Overseas Boogie
EXTD=
EXTT0=
EXTT1=
EXTT2=
EXTT3=
EXTT4=
EXTT5=
EXTT6=
EXTT7=
EXTT8=
EXTT9=
EXTT10=
EXTT11=
PLAYORDER=
